<!-- Generated by IcoMoon.io -->
<svg version="1.1" xmlns="http://www.w3.org/2000/svg" width="67" height="32" viewBox="0 0 67 32">
<path fill="#fff" d="M42.399 9.084v17.016c0 0.909 0.184 1.647 0.554 2.214 0.369 0.568 0.951 0.851 1.746 0.851 0.567 0 1.256-0.213 2.065-0.639s1.682-1.121 2.618-2.086v-11.523c0-0.937-0.114-1.675-0.341-2.214s-0.625-0.951-1.192-1.235v-0.128c0.624 0 1.256-0.099 1.895-0.298s1.241-0.468 1.81-0.809c0.567-0.341 1.050-0.724 1.448-1.149h0.128v0.030c0 0.644 0.006 11.394 0 12.89-0.014 3.911 1.334 8.685 7.452 8.986 1.162 0.057 2.108-0.362 2.831-1.086s1.085-1.696 1.085-2.917c0-0.879-0.241-1.597-0.724-2.15s-1.1-1.022-1.852-1.405c-0.752-0.383-1.54-0.745-2.363-1.086-0.88-0.397-1.718-0.852-2.512-1.362s-1.448-1.164-1.958-1.959c-0.511-0.794-0.766-1.816-0.766-3.066s0.319-2.377 0.958-3.385c0.639-1.007 1.526-1.802 2.661-2.384s2.441-0.873 3.917-0.873c0.709 0 1.412 0.050 2.108 0.149s1.369 0.249 2.022 0.447l-1.32 5.152h-0.128c-0.255-1.504-0.766-2.668-1.533-3.491s-1.633-1.235-2.597-1.235c-1.079 0-1.916 0.383-2.512 1.149s-0.894 1.633-0.894 2.597c0 0.851 0.234 1.554 0.703 2.108s1.078 1.022 1.831 1.405c0.752 0.383 1.54 0.76 2.363 1.128 0.879 0.369 1.717 0.802 2.512 1.299s1.454 1.135 1.98 1.916c0.525 0.781 0.787 1.782 0.787 3.002 0 1.505-0.348 2.775-1.043 3.81-0.696 1.037-2.263 3.178-5.647 3.215-2.688 0.030-4.832-1.388-7.205-1.388-1.813 0-3.038 0.811-3.775 1.351h-0.128v-2.853c0-0.397 0.007-0.794 0.021-1.192s0.035-0.724 0.064-0.979h-0.043c-0.596 0.795-1.277 1.575-2.044 2.342s-1.583 1.405-2.448 1.916c-0.866 0.511-1.71 0.766-2.533 0.766-1.192 0-2.107-0.419-2.746-1.256-0.164-0.215-0.306-0.445-0.428-0.69-0.395 0.551-0.932 1.020-1.612 1.408-0.696 0.397-1.383 0.596-2.065 0.596-0.823 0-1.519-0.277-2.086-0.83s-0.852-1.412-0.852-2.576v-0.383h-0.043c-0.909 1.107-1.902 2.008-2.98 2.704s-2.158 1.043-3.236 1.043c-1.107 0-2.072-0.44-2.895-1.32s-1.235-2.029-1.235-3.449c0-1.192 0.383-2.356 1.15-3.491s1.923-2.136 3.47-3.002c1.547-0.866 3.498-1.512 5.854-1.938 0-1.163 0.007-2.249 0.021-3.257s0.021-1.824 0.021-2.448c0-0.908-0.178-1.611-0.532-2.108s-0.859-0.745-1.512-0.745c-0.681 0-1.235 0.206-1.66 0.617s-0.788 0.923-1.086 1.533c-0.298 0.611-0.582 1.228-0.852 1.852s-0.589 1.143-0.958 1.554c-0.369 0.412-0.852 0.617-1.448 0.617-0.454 0-0.838-0.17-1.15-0.511s-0.468-0.78-0.468-1.32c0-0.879 0.397-1.724 1.192-2.533s1.795-1.462 3.002-1.959c1.206-0.496 2.433-0.745 3.683-0.745 1.76 0 3.122 0.419 4.087 1.256s1.448 1.98 1.448 3.428c0 0.909-0.007 1.966-0.021 3.172s-0.029 2.477-0.043 3.811c-0.015 1.334-0.029 2.633-0.043 3.896s-0.021 2.378-0.021 3.342c0 0.71 0.106 1.25 0.319 1.618s0.56 0.553 1.043 0.553c0.454 0 0.922-0.198 1.405-0.596l0.006 0.009c-0.291-0.668-0.436-1.442-0.436-2.324v-12.546c0-0.937-0.128-1.675-0.383-2.214s-0.653-0.951-1.192-1.235v-0.128c0.624 0 1.256-0.099 1.895-0.298s1.241-0.468 1.81-0.809c0.567-0.341 1.050-0.724 1.447-1.149h0.128zM8.26 0v0.128c-0.738 0.313-1.278 0.851-1.618 1.618s-0.511 1.519-0.511 2.257l-0.155 7.707h10.672v-7.707c0-0.738-0.178-1.49-0.532-2.257s-0.873-1.305-1.554-1.618v-0.128h8.26v0.128c-0.71 0.313-1.242 0.851-1.597 1.618s-0.532 1.519-0.532 2.257v23.929c0 0.909 0.205 1.703 0.617 2.385s0.916 1.178 1.512 1.49v0.128h-8.26v-0.128c0.568-0.312 1.057-0.809 1.469-1.49s0.618-1.476 0.618-2.385v-15.243h-10.672l0.155 15.243c0 0.909 0.205 1.703 0.617 2.385s0.916 1.178 1.512 1.49v0.128h-8.26v-0.128c0.567-0.312 1.057-0.809 1.469-1.49s0.618-1.476 0.618-2.385v-23.929c0-0.738-0.164-1.49-0.49-2.257s-0.859-1.305-1.597-1.618v-0.128h8.26zM32.695 19.346c-1.788 0.398-3.151 0.958-4.087 1.682s-1.583 1.533-1.937 2.427c-0.355 0.894-0.532 1.796-0.532 2.704 0 1.079 0.219 1.924 0.66 2.533 0.44 0.611 1.071 0.916 1.895 0.916 0.539 0 1.142-0.149 1.81-0.447s1.369-0.802 2.108-1.512c0-1.22 0.007-2.554 0.021-4.002s0.035-2.881 0.064-4.3z"></path>
</svg>
